<svg width="0" height="0" class="hidden">
  <symbol xmlns="http://www.w3.org/2000/svg" fill="#adb5bd" viewBox="0 0 16 16" id="briefcase">
    <path d="M6.5 1A1.5 1.5 0 0 0 5 2.5V3H1.5A1.5 1.5 0 0 0 0 4.5v8A1.5 1.5 0 0 0 1.5 14h13a1.5 1.5 0 0 0 1.5-1.5v-8A1.5 1.5 0 0 0 14.5 3H11v-.5A1.5 1.5 0 0 0 9.5 1zm0 1h3a.5.5 0 0 1 .5.5V3H6v-.5a.5.5 0 0 1 .5-.5m1.886 6.914L15 7.151V12.5a.5.5 0 0 1-.5.5h-13a.5.5 0 0 1-.5-.5V7.15l6.614 1.764a1.5 1.5 0 0 0 .772 0M1.5 4h13a.5.5 0 0 1 .5.5v1.616L8.129 7.948a.5.5 0 0 1-.258 0L1 6.116V4.5a.5.5 0 0 1 .5-.5"></path>
  </symbol>
  <symbol xmlns="http://www.w3.org/2000/svg" fill="currentColor" viewBox="0 0 16 16" id="email">
    <path d="M2 2A2 2 0 0 0 .05 3.555L8 8.414l7.95-4.859A2 2 0 0 0 14 2zm-2 9.8V4.698l5.803 3.546zm6.761-2.97-6.57 4.026A2 2 0 0 0 2 14h6.256A4.5 4.5 0 0 1 8 12.5a4.49 4.49 0 0 1 1.606-3.446l-.367-.225L8 9.586zM16 9.671V4.697l-5.803 3.546.338.208A4.5 4.5 0 0 1 12.5 8c1.414 0 2.675.652 3.5 1.671"></path>
    <path d="M15.834 12.244c0 1.168-.577 2.025-1.587 2.025-.503 0-1.002-.228-1.12-.648h-.043c-.118.416-.543.643-1.015.643-.77 0-1.259-.542-1.259-1.434v-.529c0-.844.481-1.4 1.26-1.4.585 0 .87.333.953.63h.03v-.568h.905v2.19c0 .272.18.42.411.42.315 0 .639-.415.639-1.39v-.118c0-1.277-.95-2.326-2.484-2.326h-.04c-1.582 0-2.64 1.067-2.64 2.724v.157c0 1.867 1.237 2.654 2.57 2.654h.045c.507 0 .935-.07 1.18-.18v.731c-.219.1-.643.175-1.237.175h-.044C10.438 16 9 14.82 9 12.646v-.214C9 10.36 10.421 9 12.485 9h.035c2.12 0 3.314 1.43 3.314 3.034zm-4.04.21v.227c0 .586.227.8.581.8.31 0 .564-.17.564-.743v-.367c0-.516-.275-.708-.572-.708-.346 0-.573.245-.573.791"></path>
  </symbol>
  <symbol xmlns="http://www.w3.org/2000/svg" fill="#adb5bd" viewBox="0 0 16 16" id="envelope">
    <path d="M0 4a2 2 0 0 1 2-2h12a2 2 0 0 1 2 2v8a2 2 0 0 1-2 2H2a2 2 0 0 1-2-2zm2-1a1 1 0 0 0-1 1v.217l7 4.2 7-4.2V4a1 1 0 0 0-1-1zm13 2.383-4.708 2.825L15 11.105zm-.034 6.876-5.64-3.471L8 9.583l-1.326-.795-5.64 3.47A1 1 0 0 0 2 13h12a1 1 0 0 0 .966-.741M1 11.105l4.708-2.897L1 5.383z"></path>
  </symbol>
  <symbol xmlns="http://www.w3.org/2000/svg" fill="currentColor" viewBox="0 0 16 16" id="git">
    <path d="M15.698 7.287 8.712.302a1.03 1.03 0 0 0-1.457 0l-1.45 1.45 1.84 1.84a1.223 1.223 0 0 1 1.55 1.56l1.773 1.774a1.224 1.224 0 0 1 1.267 2.025 1.226 1.226 0 0 1-2.002-1.334L8.58 5.963v4.353a1.226 1.226 0 1 1-1.008-.036V5.887a1.226 1.226 0 0 1-.666-1.608L5.093 2.465l-4.79 4.79a1.03 1.03 0 0 0 0 1.457l6.986 6.986a1.03 1.03 0 0 0 1.457 0l6.953-6.953a1.03 1.03 0 0 0 0-1.457"></path>
  </symbol>
  <symbol xmlns="http://www.w3.org/2000/svg" fill="currentColor" viewBox="0 0 16 16" id="github">
    <path d="M8 0C3.58 0 0 3.58 0 8c0 3.54 2.29 6.53 5.47 7.59.4.07.55-.17.55-.38 0-.19-.01-.82-.01-1.49-2.01.37-2.53-.49-2.69-.94-.09-.23-.48-.94-.82-1.13-.28-.15-.68-.52-.01-.53.63-.01 1.08.58 1.23.82.72 1.21 1.87.87 2.33.66.07-.52.28-.87.51-1.07-1.78-.2-3.64-.89-3.64-3.95 0-.87.31-1.59.82-2.15-.08-.2-.36-1.02.08-2.12 0 0 .67-.21 2.2.82.64-.18 1.32-.27 2-.27s1.36.09 2 .27c1.53-1.04 2.2-.82 2.2-.82.44 1.1.16 1.92.08 2.12.51.56.82 1.27.82 2.15 0 3.07-1.87 3.75-3.65 3.95.29.25.54.73.54 1.48 0 1.07-.01 1.93-.01 2.2 0 .21.15.46.55.38A8.01 8.01 0 0 0 16 8c0-4.42-3.58-8-8-8"></path>
  </symbol>
  <symbol xmlns="http://www.w3.org/2000/svg" fill="#adb5bd" viewBox="0 0 16 16" id="house">
    <path d="M8.707 1.5a1 1 0 0 0-1.414 0L.646 8.146a.5.5 0 0 0 .708.708L2 8.207V13.5A1.5 1.5 0 0 0 3.5 15h9a1.5 1.5 0 0 0 1.5-1.5V8.207l.646.647a.5.5 0 0 0 .708-.708L13 5.793V2.5a.5.5 0 0 0-.5-.5h-1a.5.5 0 0 0-.5.5v1.293zM13 7.207V13.5a.5.5 0 0 1-.5.5h-9a.5.5 0 0 1-.5-.5V7.207l5-5z"></path>
  </symbol>
  <symbol xmlns="http://www.w3.org/2000/svg" fill="#adb5bd" viewBox="0 0 16 16" id="journal-code">
    <path fill-rule="evenodd" d="M8.646 5.646a.5.5 0 0 1 .708 0l2 2a.5.5 0 0 1 0 .708l-2 2a.5.5 0 0 1-.708-.708L10.293 8 8.646 6.354a.5.5 0 0 1 0-.708m-1.292 0a.5.5 0 0 0-.708 0l-2 2a.5.5 0 0 0 0 .708l2 2a.5.5 0 0 0 .708-.708L5.707 8l1.647-1.646a.5.5 0 0 0 0-.708z"></path>
    <path d="M3 0h10a2 2 0 0 1 2 2v12a2 2 0 0 1-2 2H3a2 2 0 0 1-2-2v-1h1v1a1 1 0 0 0 1 1h10a1 1 0 0 0 1-1V2a1 1 0 0 0-1-1H3a1 1 0 0 0-1 1v1H1V2a2 2 0 0 1 2-2"></path>
    <path d="M1 5v-.5a.5.5 0 0 1 1 0V5h.5a.5.5 0 0 1 0 1h-2a.5.5 0 0 1 0-1zm0 3v-.5a.5.5 0 0 1 1 0V8h.5a.5.5 0 0 1 0 1h-2a.5.5 0 0 1 0-1zm0 3v-.5a.5.5 0 0 1 1 0v.5h.5a.5.5 0 0 1 0 1h-2a.5.5 0 0 1 0-1z"></path>
  </symbol>
  <symbol xmlns="http://www.w3.org/2000/svg" fill="currentColor" viewBox="0 0 16 16" id="linkedin">
    <path d="M0 1.146C0 .513.526 0 1.175 0h13.65C15.474 0 16 .513 16 1.146v13.708c0 .633-.526 1.146-1.175 1.146H1.175C.526 16 0 15.487 0 14.854zm4.943 12.248V6.169H2.542v7.225zm-1.2-8.212c.837 0 1.358-.554 1.358-1.248-.015-.709-.52-1.248-1.342-1.248S2.4 3.226 2.4 3.934c0 .694.521 1.248 1.327 1.248zm4.908 8.212V9.359c0-.216.016-.432.08-.586.173-.431.568-.878 1.232-.878.869 0 1.216.662 1.216 1.634v3.865h2.401V9.25c0-2.22-1.184-3.252-2.764-3.252-1.274 0-1.845.7-2.165 1.193v.025h-.016l.016-.025V6.169h-2.4c.03.678 0 7.225 0 7.225z"></path>
  </symbol>
  <symbol xmlns="http://www.w3.org/2000/svg" fill="currentColor" viewBox="0 0 16 16" id="mortarboard">
    <path d="M8.211 2.047a.5.5 0 0 0-.422 0l-7.5 3.5a.5.5 0 0 0 .025.917l7.5 3a.5.5 0 0 0 .372 0L14 7.14V13a1 1 0 0 0-1 1v2h3v-2a1 1 0 0 0-1-1V6.739l.686-.275a.5.5 0 0 0 .025-.917zM8 8.46 1.758 5.965 8 3.052l6.242 2.913z"></path>
    <path d="M4.176 9.032a.5.5 0 0 0-.656.327l-.5 1.7a.5.5 0 0 0 .294.605l4.5 1.8a.5.5 0 0 0 .372 0l4.5-1.8a.5.5 0 0 0 .294-.605l-.5-1.7a.5.5 0 0 0-.656-.327L8 10.466zm-.068 1.873.22-.748 3.496 1.311a.5.5 0 0 0 .352 0l3.496-1.311.22.748L8 12.46z"></path>
  </symbol>
  <symbol xmlns="http://www.w3.org/2000/svg" fill="#adb5bd" viewBox="0 0 16 16" id="person-circle">
    <path d="M11 6a3 3 0 1 1-6 0 3 3 0 0 1 6 0"></path>
    <path fill-rule="evenodd" d="M0 8a8 8 0 1 1 16 0A8 8 0 0 1 0 8m8-7a7 7 0 0 0-5.468 11.37C3.242 11.226 4.805 10 8 10s4.757 1.225 5.468 2.37A7 7 0 0 0 8 1"></path>
  </symbol>
  <!-- <symbol xmlns="http://www.w3.org/2000/svg" fill="currentColor" viewBox="0 0 16 16" id="resume">
    <path d="M12 1a1 1 0 0 1 1 1v10.755S12 11 8 11s-5 1.755-5 1.755V2a1 1 0 0 1 1-1zM4 0a2 2 0 0 0-2 2v12a2 2 0 0 0 2 2h8a2 2 0 0 0 2-2V2a2 2 0 0 0-2-2z"></path>
    <path d="M8 10a3 3 0 1 0 0-6 3 3 0 0 0 0 6"></path>
  </symbol> -->
  <symbol xmlns="http://www.w3.org/2000/svg" fill="currentColor" viewBox="0 0 16 16" id="resume">
    <path d="M12 0H4a2 2 0 0 0-2 2v12a2 2 0 0 0 2 2h8a2 2 0 0 0 2-2V2a2 2 0 0 0-2-2M5 4h6a.5.5 0 0 1 0 1H5a.5.5 0 0 1 0-1m-.5 2.5A.5.5 0 0 1 5 6h6a.5.5 0 0 1 0 1H5a.5.5 0 0 1-.5-.5M5 8h6a.5.5 0 0 1 0 1H5a.5.5 0 0 1 0-1m0 2h3a.5.5 0 0 1 0 1H5a.5.5 0 0 1 0-1"/>
    
  </symbol>

  <symbol xmlns="http://www.w3.org/2000/svg" fill="currentColor" viewBox="0 0 16 16" id="mortarboard-fill">
    <path d="M8.211 2.047a.5.5 0 0 0-.422 0l-7.5 3.5a.5.5 0 0 0 .025.917l7.5 3a.5.5 0 0 0 .372 0L14 7.14V13a1 1 0 0 0-1 1v2h3v-2a1 1 0 0 0-1-1V6.739l.686-.275a.5.5 0 0 0 .025-.917z"></path>
    <path d="M4.176 9.032a.5.5 0 0 0-.656.327l-.5 1.7a.5.5 0 0 0 .294.605l4.5 1.8a.5.5 0 0 0 .372 0l4.5-1.8a.5.5 0 0 0 .294-.605l-.5-1.7a.5.5 0 0 0-.656-.327L8 10.466z"></path>
  </symbol>
</svg>